<?xml version="1.0" standalone="no"?>
<!DOCTYPE svg PUBLIC "-//W3C//DTD SVG 20010904//EN"
 "http://www.w3.org/TR/2001/REC-SVG-20010904/DTD/svg10.dtd">
<svg version="1.0" xmlns="http://www.w3.org/2000/svg"
 width="1000.000000pt" height="1000.000000pt" viewBox="0 0 1000.000000 1000.000000"
 preserveAspectRatio="xMidYMid meet">
<metadata>
Created by potrace 1.14, written by Peter Selinger 2001-2017
</metadata>
<g transform="translate(0.000000,1000.000000) scale(0.100000,-0.100000)"
fill="#000000" stroke="none">
<path d="M4648 9644 c-2 -1 -41 -5 -88 -9 -142 -10 -144 -10 -330 -36 -41 -6
-86 -12 -100 -14 -14 -3 -43 -7 -65 -11 -22 -3 -43 -8 -46 -10 -4 -2 -27 -6
-50 -9 -111 -14 -523 -129 -664 -185 -11 -4 -36 -14 -55 -21 -179 -64 -497
-214 -685 -324 -185 -107 -521 -338 -575 -395 -3 -3 -45 -39 -95 -79 -119 -99
-431 -412 -529 -531 -43 -52 -85 -104 -94 -115 -10 -11 -30 -38 -46 -60 -16
-22 -33 -44 -38 -50 -4 -5 -30 -41 -58 -80 -27 -38 -53 -74 -57 -80 -43 -51
-232 -373 -305 -520 -81 -162 -206 -449 -212 -488 -1 -7 -4 -16 -7 -22 -6 -9
-49 -134 -56 -160 -1 -5 -14 -48 -28 -95 -29 -97 -27 -88 -55 -200 -22 -88
-26 -106 -34 -153 -3 -15 -7 -35 -10 -45 -5 -17 -10 -44 -31 -177 -3 -22 -9
-53 -12 -70 -5 -33 -8 -59 -17 -155 -4 -36 -9 -83 -12 -105 -9 -67 -12 -655
-3 -730 4 -38 11 -104 14 -145 4 -41 9 -88 12 -105 3 -16 7 -46 9 -65 1 -19 3
-35 4 -35 1 0 3 -9 4 -20 11 -78 23 -150 26 -150 1 0 3 -11 5 -25 5 -40 33
-167 61 -270 14 -52 27 -102 29 -110 2 -9 16 -56 31 -105 15 -50 29 -92 29
-95 1 -3 4 -12 8 -20 3 -8 15 -42 27 -75 11 -33 23 -67 27 -75 3 -8 7 -19 9
-25 10 -41 118 -282 184 -412 87 -172 121 -235 175 -319 19 -30 35 -56 35 -58
0 -17 313 -448 364 -502 6 -6 33 -38 61 -70 27 -33 124 -133 215 -224 152
-153 213 -208 349 -322 115 -96 387 -287 541 -380 154 -92 433 -238 458 -238
6 0 12 -4 12 -10 0 -5 6 -10 13 -10 8 0 54 -18 104 -39 99 -43 328 -126 441
-161 100 -30 368 -97 417 -104 22 -4 65 -10 95 -15 112 -19 126 -21 165 -26
22 -3 65 -7 95 -10 30 -4 73 -8 95 -11 39 -4 116 -10 245 -19 107 -8 507 -8
630 0 139 8 205 13 205 15 0 2 86 11 123 13 17 1 32 5 32 10 0 4 4 6 9 3 5 -3
33 -1 62 5 30 6 70 12 89 15 19 2 43 7 52 10 10 3 30 8 45 10 157 28 425 116
605 198 30 14 76 33 103 44 28 11 67 28 87 36 21 9 41 17 45 18 21 5 370 184
381 195 7 7 17 13 22 13 12 0 166 93 297 181 392 261 724 568 1062 984 51 63
170 231 216 304 6 9 13 18 16 21 19 17 270 455 275 480 0 3 21 48 46 100 48
101 137 319 158 385 7 22 16 45 20 50 9 10 10 16 10 39 0 8 71 106 157 217
284 369 346 453 369 504 24 53 41 133 38 175 -4 58 -17 186 -20 205 -2 11 -7
47 -10 80 -10 109 -13 129 -19 180 -3 28 -7 73 -10 100 -2 28 -5 50 -6 50 0 0
-2 14 -4 31 -3 40 -14 142 -20 191 -15 117 -18 152 -30 278 -3 39 -8 77 -10
85 -2 8 -7 49 -10 90 -3 41 -8 82 -10 90 -2 8 -7 48 -10 88 -4 41 -8 81 -10
91 -2 9 -6 48 -10 86 -3 39 -8 81 -10 95 -2 14 -7 54 -10 90 -17 183 -21 203
-49 229 -27 26 -82 33 -117 15 -45 -23 -56 -61 -52 -186 1 -62 4 -220 5 -350
2 -131 5 -238 8 -238 3 0 6 -93 7 -208 1 -114 2 -263 3 -332 1 -69 -2 -134 -6
-145 -31 -83 -150 -90 -191 -11 -12 23 -16 71 -19 201 -1 93 -5 292 -9 440 -3
149 -8 380 -10 515 -3 144 -9 256 -16 272 -13 32 -56 52 -93 42 -43 -10 -60
-46 -59 -122 4 -296 12 -593 17 -601 4 -5 2 -12 -4 -16 -6 -4 -7 -11 -4 -17 8
-12 20 -583 15 -694 -1 -12 -9 -30 -18 -41 -45 -51 -107 -57 -154 -15 -27 24
-32 36 -35 82 -4 66 -13 392 -19 700 -3 124 -7 306 -9 405 -3 99 -5 198 -5
221 -1 57 -29 87 -82 88 -33 1 -45 -4 -61 -25 -20 -26 -20 -43 -20 -752 l0
-725 -32 -17 c-69 -38 -149 11 -153 93 -2 35 -5 172 -19 812 -13 601 -9 561
-56 594 -26 19 -87 21 -122 4 -43 -19 -55 -49 -61 -154 -3 -55 -8 -133 -11
-174 -3 -41 -7 -127 -9 -190 -2 -63 -5 -115 -6 -115 -1 0 -5 -61 -13 -215 -4
-69 -8 -156 -11 -195 -4 -69 -10 -167 -20 -360 -3 -55 -8 -134 -10 -175 -14
-216 -27 -463 -28 -510 0 -53 31 -147 68 -204 18 -28 73 -99 121 -157 49 -58
105 -125 124 -149 19 -24 47 -57 63 -74 79 -90 108 -155 102 -237 -3 -51 -8
-68 -51 -164 -10 -22 -18 -42 -19 -45 0 -7 -141 -288 -163 -325 -118 -205
-256 -409 -367 -542 -5 -7 -14 -18 -20 -25 -116 -154 -435 -466 -620 -607 -22
-17 -45 -35 -51 -40 -174 -144 -577 -375 -869 -497 -156 -65 -479 -169 -585
-188 -14 -2 -25 -5 -25 -6 0 -1 -8 -3 -19 -5 -10 -2 -39 -8 -65 -14 -25 -6
-59 -12 -76 -15 -16 -2 -53 -9 -82 -15 -46 -9 -155 -24 -263 -36 -96 -11 -270
-19 -405 -19 -143 0 -393 12 -405 19 -3 1 -38 6 -79 9 -41 4 -77 9 -80 11 -3
2 -30 6 -59 9 -29 3 -63 8 -75 11 -31 7 -78 16 -104 20 -11 2 -30 6 -42 10
-11 3 -31 8 -43 11 -95 17 -255 64 -400 115 -79 27 -147 51 -153 53 -26 8 -79
31 -218 95 -49 23 -90 41 -93 41 -2 0 -22 11 -44 25 -22 14 -40 22 -40 18 0
-5 -4 -3 -8 2 -4 6 -18 16 -32 22 -99 49 -328 194 -476 304 -286 212 -570 494
-791 784 -165 218 -346 523 -444 747 -17 40 -37 87 -45 103 -7 17 -22 55 -34
85 -11 30 -24 64 -29 75 -14 31 -47 129 -81 242 -30 98 -34 115 -45 175 -3 15
-9 38 -14 51 -5 13 -12 40 -15 61 -3 21 -13 70 -21 109 -8 40 -21 124 -30 187
-9 63 -18 130 -21 148 -21 156 -21 664 1 780 1 9 6 48 10 85 3 37 8 76 9 85 2
9 7 39 10 65 4 27 9 59 12 70 2 12 7 36 10 52 37 207 129 523 207 715 6 14 10
28 9 33 -1 4 3 7 8 7 5 0 9 3 8 8 -3 14 37 103 117 262 108 214 183 340 313
522 53 73 98 135 101 138 3 3 24 28 46 55 163 205 382 422 610 607 63 51 115
88 124 88 6 0 11 4 11 8 0 4 18 19 40 32 22 14 40 28 40 33 0 4 7 7 15 7 8 0
15 5 15 10 0 6 6 10 14 10 8 0 16 4 18 8 4 11 135 92 148 92 5 0 10 5 10 11 0
5 4 8 9 5 5 -4 11 -2 13 2 5 14 362 202 382 202 3 0 29 11 58 25 28 14 56 25
60 25 5 0 28 8 51 19 53 23 171 67 217 79 19 6 73 22 120 36 47 15 98 29 114
32 16 3 32 7 36 9 7 5 172 41 229 50 19 3 37 7 40 9 3 2 35 7 71 11 36 4 67 8
70 10 3 2 32 6 65 10 33 3 74 8 90 11 146 22 706 21 815 -2 14 -3 45 -7 70 -9
241 -20 661 -125 945 -237 207 -81 466 -210 635 -317 63 -40 124 -78 134 -84
11 -7 27 -17 35 -24 9 -6 54 -40 101 -74 47 -35 90 -67 97 -73 7 -6 18 -16 25
-21 207 -161 466 -421 648 -651 45 -57 127 -173 198 -279 84 -129 121 -167
190 -197 54 -24 74 -28 142 -29 154 -2 301 129 316 281 2 29 5 55 6 59 4 17
-17 91 -37 132 -28 56 -155 253 -167 257 -4 2 -8 8 -8 13 0 5 -21 37 -47 71
-52 69 -185 240 -193 248 -3 3 -41 46 -84 95 -94 106 -271 283 -376 377 -110
98 -120 106 -267 221 -62 48 -117 87 -122 87 -5 0 -11 4 -13 8 -5 13 -206 146
-332 219 -130 77 -363 196 -491 251 -159 69 -483 185 -582 207 -10 2 -43 11
-73 20 -30 9 -64 18 -75 20 -11 2 -33 7 -50 10 -16 4 -37 8 -45 10 -8 2 -15 4
-15 5 0 2 -19 6 -65 14 -19 3 -46 8 -60 11 -14 3 -65 12 -115 20 -169 27 -259
38 -420 51 -75 6 -552 13 -557 8z"/>
<path d="M4526 8423 c-3 -3 -29 -7 -58 -9 -52 -4 -113 -11 -113 -14 0 -1 -11
-3 -25 -4 -76 -9 -112 -16 -255 -50 -60 -15 -119 -28 -130 -30 -11 -3 -72 -21
-135 -41 -63 -21 -131 -42 -150 -48 -19 -6 -38 -15 -41 -20 -3 -5 -8 -8 -10
-6 -8 5 -87 -25 -191 -73 -213 -98 -429 -227 -633 -379 -155 -116 -212 -166
-370 -325 -134 -136 -146 -149 -255 -284 -126 -157 -166 -216 -311 -461 -28
-47 -149 -294 -149 -303 0 -3 -11 -29 -24 -58 -40 -88 -75 -178 -69 -178 3 0
0 -6 -6 -13 -6 -8 -8 -17 -4 -20 3 -4 0 -7 -7 -7 -7 0 -11 -3 -7 -6 3 -3 -1
-25 -9 -47 -35 -99 -101 -372 -119 -493 -18 -129 -20 -144 -32 -254 -16 -155
-8 -607 12 -711 3 -13 7 -46 10 -74 15 -132 87 -441 141 -603 60 -180 178
-441 275 -609 27 -47 49 -86 49 -88 0 -8 147 -224 193 -285 201 -261 466 -524
702 -696 22 -16 42 -32 43 -36 2 -5 8 -8 12 -8 5 0 37 -20 72 -44 277 -192
633 -357 963 -447 97 -27 321 -77 375 -84 25 -3 52 -8 60 -10 23 -6 75 -13
194 -26 200 -21 548 -14 746 15 19 3 55 8 80 11 113 15 437 87 465 104 6 3 12
6 15 6 19 4 97 30 105 36 6 4 22 10 35 13 35 6 206 77 283 116 22 11 45 20 53
20 8 0 14 5 14 10 0 6 6 10 13 10 13 0 158 75 237 123 54 32 204 131 210 137
3 3 40 32 83 63 126 95 395 332 386 342 -2 2 -31 -22 -64 -52 -83 -78 -198
-171 -275 -224 -36 -24 -67 -46 -70 -49 -58 -58 -425 -260 -610 -334 -25 -10
-58 -24 -75 -31 -151 -64 -496 -162 -635 -181 -25 -3 -48 -8 -51 -10 -3 -1
-37 -6 -75 -10 -38 -3 -78 -8 -89 -10 -116 -25 -774 -24 -813 0 -4 2 -29 7
-57 10 -58 7 -91 12 -160 27 -27 6 -60 13 -73 15 -112 22 -359 96 -527 158
-109 41 -388 182 -495 251 -334 214 -411 275 -636 500 -82 82 -192 202 -242
265 -51 63 -97 121 -102 127 -18 22 -150 221 -150 226 0 3 -17 34 -38 68 -66
109 -161 304 -213 437 -5 12 -13 32 -18 45 -20 46 -63 174 -78 227 -24 87 -62
247 -68 283 -3 17 -8 39 -10 47 -2 8 -7 38 -11 65 -3 28 -8 59 -10 70 -6 28
-15 93 -19 135 -2 19 -6 69 -10 110 -14 141 -8 513 10 610 2 14 7 48 10 75 13
132 65 381 111 533 64 210 217 565 286 665 11 15 17 27 14 27 -3 0 6 16 19 36
13 19 27 44 30 55 4 10 11 19 16 19 5 0 9 6 9 13 1 21 182 267 289 391 20 22
104 109 186 192 129 130 196 189 335 294 14 11 48 36 75 57 44 35 94 67 147
98 10 6 55 34 102 63 227 142 663 318 919 371 23 5 53 12 67 15 14 4 39 9 55
12 17 3 48 9 70 14 22 5 63 12 90 16 28 3 53 8 56 10 17 10 221 19 434 19 216
0 342 -6 430 -20 17 -3 48 -7 70 -9 112 -11 467 -92 546 -125 13 -5 65 -24
114 -41 50 -17 99 -35 110 -40 11 -5 69 -29 128 -55 59 -25 129 -58 155 -72
26 -14 61 -34 77 -43 17 -9 62 -34 100 -55 117 -65 313 -204 442 -312 67 -57
125 -103 127 -103 3 0 -21 24 -52 53 -31 28 -59 54 -62 57 -65 65 -397 320
-416 320 -4 0 -21 10 -38 23 -161 122 -607 318 -921 406 -61 17 -167 43 -195
47 -14 3 -47 9 -75 14 -60 11 -125 20 -180 26 -22 3 -65 7 -95 11 -68 7 -637
12 -644 6z"/>
<path d="M4538 7521 c-30 -9 -47 -43 -72 -152 -14 -62 -28 -124 -31 -137 -10
-53 -36 -147 -43 -153 -4 -3 -45 -16 -92 -28 -158 -42 -437 -162 -525 -226
l-30 -22 -85 52 c-47 28 -131 80 -187 114 -80 49 -108 62 -127 57 -35 -9 -493
-466 -502 -501 -5 -21 6 -47 62 -138 37 -62 71 -113 76 -115 4 -2 8 -8 8 -13
0 -5 16 -33 35 -63 19 -30 35 -60 35 -66 0 -6 -10 -27 -23 -48 -24 -37 -112
-215 -142 -284 -18 -44 -55 -155 -85 -255 -13 -47 -26 -74 -38 -77 -32 -10
-337 -78 -355 -79 -9 -1 -29 -11 -44 -23 l-28 -22 1 -346 c0 -336 0 -347 20
-367 12 -11 32 -22 45 -24 30 -4 48 -8 212 -46 171 -38 173 -39 182 -86 17
-90 91 -289 161 -430 42 -84 80 -153 85 -153 6 0 7 -5 4 -10 -3 -5 -1 -10 4
-10 10 0 -51 -107 -136 -237 -61 -94 -86 -149 -78 -174 8 -25 431 -453 477
-483 18 -12 35 -15 50 -11 20 6 150 84 328 196 25 16 47 24 48 19 2 -6 7 -10
11 -10 4 0 43 -20 87 -45 109 -63 298 -141 433 -180 63 -18 117 -39 121 -46 4
-8 13 -41 20 -74 7 -33 23 -103 36 -155 13 -52 26 -111 29 -130 3 -19 15 -44
25 -55 19 -18 36 -19 364 -20 l345 0 21 23 c12 12 24 35 26 50 12 68 75 339
83 358 6 15 25 24 67 33 141 31 524 197 576 249 7 7 59 -19 167 -86 198 -122
225 -135 251 -127 32 10 488 469 496 499 5 22 -7 49 -65 144 -40 64 -78 126
-84 137 -7 11 -14 22 -17 25 -3 3 -16 26 -30 51 -24 46 -24 47 -5 75 74 112
171 333 219 499 18 63 35 117 38 120 7 8 234 62 338 81 45 8 63 16 84 36 20
18 20 29 21 353 0 185 -3 344 -7 354 -7 20 -35 39 -66 46 -9 2 -69 16 -132 31
-63 14 -140 32 -171 39 -68 14 -79 21 -79 45 0 72 -171 489 -246 599 -13 20
-20 38 -16 41 8 5 71 106 175 277 39 65 48 88 43 109 -4 16 -96 115 -234 254
-221 220 -255 250 -285 250 -8 0 -83 -43 -166 -95 -84 -52 -157 -95 -162 -95
-5 0 -9 -4 -9 -10 0 -21 -49 -22 -77 -2 -93 66 -458 216 -576 238 -46 8 -47
10 -87 188 -16 72 -34 146 -39 164 -11 37 -11 37 -11 57 0 8 -12 22 -27 32
-24 16 -59 18 -354 18 -180 0 -334 -1 -341 -4z m592 -147 c0 -1 16 -72 36
-156 19 -84 37 -164 39 -178 2 -14 4 -26 4 -27 1 -2 1 -6 2 -10 2 -17 39 -60
51 -61 7 0 33 -6 58 -12 25 -7 50 -13 55 -14 27 -6 162 -49 185 -59 14 -6 27
-11 30 -12 3 -1 14 -5 25 -9 21 -8 34 -12 50 -15 6 -2 18 -10 28 -18 9 -9 17
-13 17 -10 0 7 141 -67 224 -117 33 -20 67 -36 75 -36 9 0 52 23 96 50 44 27
94 57 110 65 17 9 44 24 60 35 17 11 44 27 60 36 17 9 33 21 36 26 3 5 87 -72
187 -172 l180 -180 -109 -177 c-60 -97 -109 -185 -109 -195 0 -11 15 -42 33
-71 39 -61 132 -231 129 -235 -1 -1 4 -15 12 -31 9 -16 12 -31 9 -35 -4 -3 -1
-6 5 -6 7 0 11 -3 11 -7 -3 -18 14 -73 23 -73 5 0 6 -4 3 -10 -3 -5 -1 -10 5
-10 6 0 8 -4 5 -10 -3 -5 -3 -16 2 -22 4 -7 8 -16 9 -20 1 -5 2 -9 4 -10 2 -3
5 -15 13 -53 3 -11 13 -47 22 -80 9 -33 17 -66 17 -73 1 -13 58 -59 58 -47 0
3 5 3 12 -1 7 -4 21 -9 33 -10 11 -1 89 -19 174 -38 85 -20 156 -36 157 -36 1
0 2 -115 1 -255 0 -140 -2 -255 -3 -255 -1 0 -63 -14 -136 -31 -73 -17 -144
-33 -158 -36 -14 -3 -29 -6 -35 -8 -5 -1 -24 -6 -42 -10 -28 -6 -78 -45 -58
-45 4 0 2 -7 -5 -15 -7 -8 -10 -15 -6 -15 3 0 1 -11 -4 -26 -10 -25 -22 -79
-23 -101 0 -7 -3 -13 -7 -13 -4 0 -7 -6 -8 -12 -1 -15 -7 -37 -15 -58 -3 -8
-16 -44 -28 -80 -13 -36 -25 -67 -28 -70 -3 -3 -7 -12 -9 -20 -5 -27 -75 -164
-119 -232 -23 -37 -45 -79 -49 -93 -7 -28 1 -43 132 -252 l83 -133 -182 -180
c-100 -100 -183 -176 -185 -170 -2 5 -8 8 -13 4 -5 -3 -9 0 -9 6 0 6 -15 18
-32 26 -18 8 -76 41 -128 74 -180 114 -185 115 -264 61 -57 -40 -214 -120
-220 -113 -4 3 -6 0 -6 -7 0 -7 -4 -10 -9 -6 -5 3 -12 1 -16 -5 -3 -5 -15 -10
-26 -10 -10 0 -19 -5 -19 -11 0 -5 -4 -8 -9 -4 -5 3 -12 1 -16 -5 -4 -6 -11
-8 -16 -5 -5 4 -9 1 -9 -4 0 -6 -3 -10 -7 -9 -5 1 -39 -8 -78 -21 -38 -13 -77
-25 -85 -27 -80 -20 -107 -26 -122 -29 -50 -11 -71 -38 -83 -108 -3 -18 -20
-90 -37 -162 -16 -71 -32 -139 -35 -151 -5 -20 -10 -21 -259 -21 -140 -1 -254
1 -254 2 0 2 -14 64 -31 137 -41 175 -42 180 -41 200 0 10 -3 20 -9 23 -5 4
-9 13 -9 21 0 24 -35 55 -66 59 -16 2 -29 4 -29 5 0 2 -38 10 -60 12 -11 1
-22 5 -25 9 -3 4 -19 10 -35 13 -17 2 -31 5 -32 5 -2 1 -5 1 -8 1 -3 0 -19 7
-35 15 -17 9 -30 13 -30 9 0 -4 -6 -1 -13 5 -8 6 -17 8 -20 4 -4 -3 -7 -1 -7
5 0 7 -7 12 -15 12 -9 0 -33 9 -54 20 -21 10 -41 16 -45 13 -3 -4 -6 -1 -6 6
0 7 -4 10 -9 6 -5 -3 -17 2 -25 11 -9 8 -16 13 -16 10 0 -6 -89 42 -178 96
-34 21 -70 38 -80 38 -10 0 -62 -27 -116 -60 -54 -33 -103 -60 -107 -60 -5 0
-9 -4 -9 -9 0 -5 -8 -11 -17 -14 -24 -8 -77 -40 -81 -49 -2 -5 -10 -8 -17 -8
-7 0 -15 -5 -17 -11 -2 -6 -86 71 -186 171 l-181 183 18 26 c51 71 201 327
201 342 0 19 -16 51 -46 94 -22 31 -127 232 -131 250 -4 21 -28 80 -35 85 -4
3 -9 17 -11 30 -3 14 -12 45 -20 70 -17 49 -37 122 -43 157 -7 36 -23 73 -39
89 -14 14 -23 17 -85 30 -31 7 -176 40 -261 60 l-67 16 1 254 c0 140 1 254 3
254 1 0 70 16 152 35 83 19 163 37 178 40 89 19 114 47 118 138 0 9 5 17 10
17 5 0 7 3 3 6 -3 3 1 23 8 45 8 21 12 39 8 39 -3 0 0 7 7 15 7 8 9 15 5 15
-4 0 -2 7 5 15 7 8 9 15 5 15 -4 0 -2 6 4 13 6 8 12 22 14 33 2 10 10 33 17
49 7 17 14 35 16 42 5 24 113 232 142 276 52 74 51 100 -8 187 -9 14 -28 43
-42 65 -13 22 -47 77 -75 122 l-51 82 175 175 c96 97 181 176 188 176 8 0 21
-7 29 -16 9 -8 16 -13 16 -9 0 3 10 -3 22 -14 11 -11 25 -18 30 -15 4 3 8 0 8
-5 0 -6 4 -11 9 -11 5 0 60 -31 122 -70 62 -38 120 -70 128 -70 9 0 54 23 101
50 47 28 110 62 140 76 30 14 71 34 90 44 19 10 38 19 43 19 4 0 23 8 43 16
20 8 43 15 50 15 8 0 14 5 14 11 0 5 4 8 9 4 5 -3 12 -1 16 5 4 6 11 8 16 4 5
-3 16 0 24 6 8 7 15 10 15 6 0 -3 16 0 35 8 19 8 35 13 35 11 0 -2 15 1 33 6
17 6 39 12 47 14 8 2 22 5 30 7 18 4 36 20 37 32 1 5 6 12 12 15 6 4 13 23 15
42 2 19 12 66 21 104 9 39 18 77 20 85 2 8 11 47 20 86 l16 71 254 0 c140 0
255 -1 255 -3z"/>
<path d="M4710 6333 c-216 -35 -365 -88 -540 -192 -103 -61 -150 -99 -255
-205 -189 -190 -322 -448 -370 -716 -21 -116 -16 -372 9 -490 3 -14 8 -38 12
-55 26 -134 147 -381 253 -519 31 -40 230 -234 254 -248 13 -7 44 -26 68 -42
75 -50 229 -122 332 -155 153 -49 275 -65 452 -58 249 9 445 68 655 195 110
67 155 103 255 205 162 165 278 366 339 587 34 124 41 185 40 375 0 184 -10
244 -64 410 -46 139 -131 296 -225 415 -44 55 -200 208 -207 204 -4 -3 -8 -1
-8 4 0 14 -142 104 -246 155 -98 49 -210 88 -324 113 -71 16 -366 28 -430 17z
m251 -148 c92 -7 123 -11 197 -29 12 -4 31 -8 41 -10 11 -3 29 -10 40 -16 12
-6 21 -8 21 -5 0 3 13 -1 30 -10 16 -8 31 -15 32 -14 2 0 17 -5 33 -12 17 -7
32 -13 35 -14 16 -4 105 -54 165 -94 91 -60 238 -207 304 -304 53 -78 121
-211 121 -234 0 -7 4 -13 10 -13 5 0 9 -3 9 -7 -1 -5 0 -10 1 -13 1 -3 3 -13
6 -22 6 -27 10 -42 17 -58 3 -8 8 -26 10 -40 3 -14 8 -36 11 -50 16 -64 19
-105 19 -240 1 -147 -4 -192 -28 -290 -3 -11 -7 -29 -9 -39 -3 -11 -10 -29
-16 -40 -6 -12 -8 -21 -4 -21 3 0 1 -6 -5 -13 -6 -8 -12 -22 -14 -33 -2 -10
-9 -29 -15 -41 -7 -13 -9 -23 -5 -23 4 0 4 -4 -2 -8 -5 -4 -18 -25 -28 -47
-64 -137 -239 -338 -372 -426 -78 -52 -128 -83 -135 -85 -42 -13 -50 -18 -50
-27 0 -6 -3 -8 -6 -5 -3 4 -30 -5 -60 -18 -30 -13 -54 -21 -54 -19 0 3 -9 1
-21 -5 -11 -6 -29 -13 -40 -16 -10 -2 -29 -6 -41 -9 -13 -2 -36 -8 -53 -12
-16 -3 -39 -7 -50 -8 -11 -1 -51 -6 -90 -10 -73 -8 -112 -8 -180 -1 -22 3 -60
7 -85 10 -25 3 -56 8 -70 11 -53 13 -75 17 -87 18 -7 0 -13 4 -13 9 0 4 -3 7
-7 7 -5 -1 -10 0 -13 1 -3 1 -14 3 -25 5 -10 2 -28 8 -40 14 -88 41 -121 55
-127 53 -5 -1 -8 2 -8 8 0 5 -5 10 -11 10 -20 0 -172 106 -237 166 -97 88
-242 284 -258 350 -3 13 -10 24 -15 24 -5 0 -9 9 -9 19 0 11 -5 23 -10 26 -6
4 -8 10 -5 15 3 5 1 11 -5 15 -6 4 -8 11 -5 16 4 5 2 9 -4 9 -6 0 -8 6 -5 14
3 8 0 17 -5 21 -6 3 -9 11 -6 16 4 5 2 9 -2 9 -5 0 -10 8 -11 18 -2 22 -10 57
-12 57 -1 0 -3 11 -5 25 -2 14 -6 36 -9 50 -21 90 -21 262 0 385 3 17 6 39 7
50 2 11 6 26 11 33 4 7 5 16 2 19 -3 3 -1 12 5 20 6 7 8 13 5 13 -4 0 -2 9 4
21 6 11 13 28 15 37 32 138 150 328 289 467 85 84 234 195 263 195 7 0 13 5
13 11 0 5 4 8 9 4 5 -3 16 2 25 10 8 9 18 16 21 15 3 0 22 7 43 16 20 10 41
16 45 15 4 -1 18 4 30 11 12 7 27 13 32 14 6 0 13 2 18 4 4 1 12 4 17 5 6 1
11 3 13 5 3 2 37 9 67 14 14 2 25 5 25 6 0 3 36 7 130 15 44 4 82 9 84 11 2 2
7 2 10 -1 4 -2 41 -6 82 -10z"/>
</g>
</svg>
